<svg xmlns="http://www.w3.org/2000/svg" xmlns:xlink="http://www.w3.org/1999/xlink" width="40" zoomAndPan="magnify" viewBox="0 0 30 30.000001" height="40" preserveAspectRatio="xMidYMid meet" version="1.0"><defs><clipPath id="9fb2390844"><path d="M 1.261719 2.246094 L 28.84375 2.246094 L 28.84375 6.8125 L 1.261719 6.8125 Z M 1.261719 2.246094 " clip-rule="nonzero"/></clipPath><clipPath id="d8fa8a30cb"><path d="M 1.261719 11.277344 L 28.84375 11.277344 L 28.84375 15.953125 L 1.261719 15.953125 Z M 1.261719 11.277344 " clip-rule="nonzero"/></clipPath><clipPath id="c52227846e"><path d="M 1.261719 20 L 9 20 L 9 26.882812 L 1.261719 26.882812 Z M 1.261719 20 " clip-rule="nonzero"/></clipPath><clipPath id="d7ca83ec29"><path d="M 9 20 L 15 20 L 15 26.882812 L 9 26.882812 Z M 9 20 " clip-rule="nonzero"/></clipPath><clipPath id="d9c12f7b77"><path d="M 15 20 L 22 20 L 22 26.882812 L 15 26.882812 Z M 15 20 " clip-rule="nonzero"/></clipPath><clipPath id="093d8e2bd9"><path d="M 22.871094 20.519531 L 28.84375 20.519531 L 28.84375 26.839844 L 22.871094 26.839844 Z M 22.871094 20.519531 " clip-rule="nonzero"/></clipPath></defs><g clip-path="url(#9fb2390844)"><path fill="#212121" d="M 28.84375 6.796875 L 1.261719 6.796875 L 1.261719 2.246094 L 28.84375 2.246094 L 28.84375 6.796875 " fill-opacity="1" fill-rule="nonzero"/></g><g clip-path="url(#d8fa8a30cb)"><path fill="#212121" d="M 28.84375 15.898438 L 1.261719 15.898438 L 1.261719 11.347656 L 28.84375 11.347656 L 28.84375 15.898438 " fill-opacity="1" fill-rule="nonzero"/></g><g clip-path="url(#c52227846e)"><path fill="#212121" d="M 1.261719 20.550781 L 3.78125 20.550781 L 4.75 24.3125 L 5.714844 20.550781 L 8.230469 20.550781 L 8.230469 26.734375 L 6.664062 26.734375 L 6.664062 22.019531 L 5.453125 26.734375 L 4.035156 26.734375 L 2.832031 22.019531 L 2.832031 26.734375 L 1.261719 26.734375 L 1.261719 20.550781 " fill-opacity="1" fill-rule="nonzero"/></g><g clip-path="url(#d7ca83ec29)"><path fill="#212121" d="M 9.445312 20.550781 L 14.574219 20.550781 L 14.574219 21.871094 L 11.363281 21.871094 L 11.363281 22.851562 L 14.34375 22.851562 L 14.34375 24.113281 L 11.363281 24.113281 L 11.363281 25.332031 L 14.667969 25.332031 L 14.667969 26.734375 L 9.445312 26.734375 L 9.445312 20.550781 " fill-opacity="1" fill-rule="nonzero"/></g><g clip-path="url(#d9c12f7b77)"><path fill="#212121" d="M 15.710938 20.550781 L 17.496094 20.550781 L 19.828125 23.972656 L 19.828125 20.550781 L 21.632812 20.550781 L 21.632812 26.734375 L 19.828125 26.734375 L 17.511719 23.339844 L 17.511719 26.734375 L 15.710938 26.734375 L 15.710938 20.550781 " fill-opacity="1" fill-rule="nonzero"/></g><g clip-path="url(#093d8e2bd9)"><path fill="#212121" d="M 26.933594 20.550781 L 28.84375 20.550781 L 28.84375 24.234375 C 28.84375 24.597656 28.789062 24.945312 28.671875 25.269531 C 28.558594 25.59375 28.378906 25.875 28.136719 26.121094 C 27.894531 26.363281 27.636719 26.535156 27.371094 26.632812 C 27 26.769531 26.550781 26.839844 26.03125 26.839844 C 25.730469 26.839844 25.402344 26.816406 25.042969 26.773438 C 24.6875 26.734375 24.390625 26.648438 24.152344 26.523438 C 23.910156 26.398438 23.691406 26.222656 23.496094 25.992188 C 23.296875 25.761719 23.160156 25.523438 23.085938 25.277344 C 22.96875 24.886719 22.910156 24.535156 22.910156 24.234375 L 22.910156 20.550781 L 24.820312 20.550781 L 24.820312 24.320312 C 24.820312 24.660156 24.914062 24.921875 25.101562 25.113281 C 25.285156 25.300781 25.546875 25.394531 25.878906 25.394531 C 26.207031 25.394531 26.46875 25.300781 26.65625 25.117188 C 26.839844 24.929688 26.933594 24.664062 26.933594 24.320312 L 26.933594 20.550781 " fill-opacity="1" fill-rule="nonzero"/></g></svg>